<svg xmlns="http://www.w3.org/2000/svg" viewBox="0 0 1000 1547" width="1000" height="1547">
<g font-family="'Comic Sans MS', 'Comic Neue', 'Chalkboard', 'Segoe Print', sans-serif" text-anchor="middle">
<text x="50" y="46" text-anchor="start" font-size="16" fill="#7ec8ff">PAGE 4</text>
<rect x="118" y="182" width="296" height="37" rx="5" fill="#fff" stroke="#111" stroke-width="2"/>
<text x="266" y="206" font-size="18" fill="#111">FALCON — MAINTENANCE ROOM</text>
<rect x="532" y="171" width="404" height="58" rx="5" fill="#fff" stroke="#111" stroke-width="2"/>
<text x="734" y="195" font-size="18" fill="#111">SCIENTIFIC DRILLING / ENVIRONMENTAL</text>
<text x="734" y="217" font-size="18" fill="#111">MONITORING</text>
<polygon points="85,900 119,893 148,1122" fill="#fff" stroke="#111" stroke-width="2" stroke-linejoin="round"/>
<ellipse cx="102" cy="897" rx="88" ry="52" fill="#fff" stroke="#111" stroke-width="2"/>
<text x="102" y="880" font-size="19" fill="#111">THAT IS NOT</text>
<text x="102" y="903" font-size="19" fill="#111">AN ICE-CORE</text>
<text x="102" y="926" font-size="19" fill="#111">MANIFEST.</text>
<polygon points="258,1021 291,1029 234,1186" fill="#fff" stroke="#111" stroke-width="2" stroke-linejoin="round"/>
<ellipse cx="275" cy="1025" rx="82" ry="52" fill="#fff" stroke="#111" stroke-width="2"/>
<text x="275" y="1009" font-size="19" fill="#111">IT IS</text>
<text x="275" y="1032" font-size="19" fill="#111">PRETENDING</text>
<text x="275" y="1055" font-size="19" fill="#111">TO BE ONE.</text>
<polygon points="409,1184 441,1170 463,1262" fill="#fff" stroke="#111" stroke-width="2" stroke-linejoin="round"/>
<ellipse cx="425" cy="1177" rx="93" ry="75" fill="#fff" stroke="#111" stroke-width="2"/>
<text x="425" y="1137" font-size="19" fill="#111">THE</text>
<text x="425" y="1161" font-size="19" fill="#111">VIBRATION IS</text>
<text x="425" y="1184" font-size="19" fill="#111">LOCAL. THE</text>
<text x="425" y="1207" font-size="19" fill="#111">INSTABILITY</text>
<text x="425" y="1230" font-size="19" fill="#111">IS NOT.</text>
<rect x="734" y="1110" width="144" height="37" rx="5" fill="#fff" stroke="#111" stroke-width="2"/>
<text x="806" y="1134" font-size="18" fill="#111">07:14 / ———</text>
<polygon points="864,907 898,913 843,1129" fill="#fff" stroke="#111" stroke-width="2" stroke-linejoin="round"/>
<ellipse cx="881" cy="910" rx="88" ry="63" fill="#fff" stroke="#111" stroke-width="2"/>
<text x="881" y="882" font-size="19" fill="#111">LOCAL</text>
<text x="881" y="905" font-size="19" fill="#111">RECORD.</text>
<text x="881" y="928" font-size="19" fill="#111">ACCESS</text>
<text x="881" y="951" font-size="19" fill="#111">RESTRICTED.</text>
</g>
</svg>