<svg xmlns="http://www.w3.org/2000/svg" viewBox="0 0 1000 1547" width="1000" height="1547">
<g font-family="'Comic Sans MS', 'Comic Neue', 'Chalkboard', 'Segoe Print', sans-serif" text-anchor="middle">
<text x="50" y="46" text-anchor="start" font-size="16" fill="#7ec8ff">PAGE 17</text>
<text x="156" y="200" font-size="45" font-weight="bold" fill="#fff" stroke="#111" stroke-width="5.4" paint-order="stroke" transform="rotate(-6 156 200)">RING—RING—</text>
<polygon points="598,204 631,196 672,418" fill="#fff" stroke="#111" stroke-width="2" stroke-linejoin="round"/>
<ellipse cx="615" cy="200" rx="58" ry="29" fill="#fff" stroke="#111" stroke-width="2"/>
<text x="615" y="207" font-size="19" fill="#111">ORIEN?</text>
<polygon points="253,897 288,897 270,1122" fill="#fff" stroke="#111" stroke-width="2" stroke-linejoin="round"/>
<ellipse cx="270" cy="897" rx="93" ry="110" fill="#fff" stroke="#111" stroke-width="2"/>
<text x="270" y="822" font-size="19" fill="#111">CROFT</text>
<text x="270" y="845" font-size="19" fill="#111">THREATENED</text>
<text x="270" y="868" font-size="19" fill="#111">ME. THE</text>
<text x="270" y="891" font-size="19" fill="#111">WARNINGS</text>
<text x="270" y="915" font-size="19" fill="#111">WERE</text>
<text x="270" y="938" font-size="19" fill="#111">SCHEDULED…</text>
<text x="270" y="961" font-size="19" fill="#111">IN CASE I</text>
<text x="270" y="984" font-size="19" fill="#111">DISAPPEARED.</text>
<polygon points="828,906 861,915 787,1129" fill="#fff" stroke="#111" stroke-width="2" stroke-linejoin="round"/>
<ellipse cx="844" cy="910" rx="93" ry="110" fill="#fff" stroke="#111" stroke-width="2"/>
<text x="844" y="836" font-size="19" fill="#111">SECOND</text>
<text x="844" y="859" font-size="19" fill="#111">TIMESTAMP.</text>
<text x="844" y="882" font-size="19" fill="#111">DO NOT</text>
<text x="844" y="905" font-size="19" fill="#111">RELEASE</text>
<text x="844" y="928" font-size="19" fill="#111">EVERYTHING.</text>
<text x="844" y="951" font-size="19" fill="#111">RELEASE WHAT</text>
<text x="844" y="975" font-size="19" fill="#111">CAN BE</text>
<text x="844" y="998" font-size="19" fill="#111">CHECKED.</text>
<text x="615" y="1347" font-size="45" font-weight="bold" fill="#fff" stroke="#111" stroke-width="5.4" paint-order="stroke" transform="rotate(-6 615 1347)">CLICK</text>
</g>
</svg>