<svg xmlns="http://www.w3.org/2000/svg" viewBox="0 0 1000 1547" width="1000" height="1547">
<g font-family="'Comic Sans MS', 'Comic Neue', 'Chalkboard', 'Segoe Print', sans-serif" text-anchor="middle">
<text x="50" y="46" text-anchor="start" font-size="16" fill="#7ec8ff">PAGE 17</text>
<text x="385" y="200" font-size="45" font-weight="bold" fill="#fff" stroke="#111" stroke-width="5.4" paint-order="stroke" transform="rotate(-6 385 200)">RING—RING—</text>
<polygon points="598,204 631,196 672,418" fill="#fff" stroke="#111" stroke-width="2" stroke-linejoin="round"/>
<ellipse cx="615" cy="200" rx="58" ry="29" fill="#fff" stroke="#111" stroke-width="2"/>
<text x="615" y="207" font-size="19" fill="#111">ORIEN?</text>
<polygon points="139,915 172,906 213,1129" fill="#fff" stroke="#111" stroke-width="2" stroke-linejoin="round"/>
<ellipse cx="156" cy="910" rx="93" ry="110" fill="#fff" stroke="#111" stroke-width="2"/>
<text x="156" y="836" font-size="19" fill="#111">CROFT</text>
<text x="156" y="859" font-size="19" fill="#111">THREATENED</text>
<text x="156" y="882" font-size="19" fill="#111">ME. THE</text>
<text x="156" y="905" font-size="19" fill="#111">WARNINGS</text>
<text x="156" y="928" font-size="19" fill="#111">WERE</text>
<text x="156" y="951" font-size="19" fill="#111">SCHEDULED…</text>
<text x="156" y="975" font-size="19" fill="#111">IN CASE I</text>
<text x="156" y="998" font-size="19" fill="#111">DISAPPEARED.</text>
<polygon points="598,915 631,906 672,1129" fill="#fff" stroke="#111" stroke-width="2" stroke-linejoin="round"/>
<ellipse cx="615" cy="910" rx="93" ry="110" fill="#fff" stroke="#111" stroke-width="2"/>
<text x="615" y="836" font-size="19" fill="#111">SECOND</text>
<text x="615" y="859" font-size="19" fill="#111">TIMESTAMP.</text>
<text x="615" y="882" font-size="19" fill="#111">DO NOT</text>
<text x="615" y="905" font-size="19" fill="#111">RELEASE</text>
<text x="615" y="928" font-size="19" fill="#111">EVERYTHING.</text>
<text x="615" y="951" font-size="19" fill="#111">RELEASE WHAT</text>
<text x="615" y="975" font-size="19" fill="#111">CAN BE</text>
<text x="615" y="998" font-size="19" fill="#111">CHECKED.</text>
<text x="844" y="1347" font-size="30" font-weight="bold" fill="#fff" stroke="#111" stroke-width="3.6" paint-order="stroke" transform="rotate(-6 844 1347)">CLICK</text>
</g>
</svg>