<svg xmlns="http://www.w3.org/2000/svg" viewBox="0 0 1000 1547" width="1000" height="1547">
<g font-family="'Comic Sans MS', 'Chalkboard', 'Segoe Print', sans-serif" text-anchor="middle">
<text x="50" y="46" text-anchor="start" font-size="16" fill="#7ec8ff">PAGE 46</text>
<polygon points="598,204 631,196 672,418" fill="#fff" stroke="#111" stroke-width="2" stroke-linejoin="round"/>
<ellipse cx="615" cy="200" rx="93" ry="75" fill="#fff" stroke="#111" stroke-width="2"/>
<text x="615" y="160" font-size="19" fill="#111">ALPHA WAS</text>
<text x="615" y="183" font-size="19" fill="#111">TRACING</text>
<text x="615" y="207" font-size="19" fill="#111">PEOPLE</text>
<text x="615" y="230" font-size="19" fill="#111">CONNECTED TO</text>
<text x="615" y="253" font-size="19" fill="#111">ADRIAN.</text>
<polygon points="828,196 861,204 787,418" fill="#fff" stroke="#111" stroke-width="2" stroke-linejoin="round"/>
<ellipse cx="844" cy="200" rx="88" ry="75" fill="#fff" stroke="#111" stroke-width="2"/>
<text x="844" y="160" font-size="19" fill="#111">MERA</text>
<text x="844" y="183" font-size="19" fill="#111">SUPPRESSED</text>
<text x="844" y="207" font-size="19" fill="#111">ADA&#x27;S</text>
<text x="844" y="230" font-size="19" fill="#111">ASSOCIATION</text>
<text x="844" y="253" font-size="19" fill="#111">RISK.</text>
<polygon points="139,915 172,906 213,1129" fill="#fff" stroke="#111" stroke-width="2" stroke-linejoin="round"/>
<ellipse cx="156" cy="910" rx="99" ry="98" fill="#fff" stroke="#111" stroke-width="2"/>
<text x="156" y="847" font-size="19" fill="#111">IN EXCHANGE,</text>
<text x="156" y="870" font-size="19" fill="#111">I SURRENDERED</text>
<text x="156" y="894" font-size="19" fill="#111">COVENANT</text>
<text x="156" y="917" font-size="19" fill="#111">AUTHORITY AND</text>
<text x="156" y="940" font-size="19" fill="#111">ACCEPTED</text>
<text x="156" y="963" font-size="19" fill="#111">CONTACT</text>
<text x="156" y="986" font-size="19" fill="#111">RESTRICTIONS.</text>
<polygon points="598,915 631,906 672,1129" fill="#fff" stroke="#111" stroke-width="2" stroke-linejoin="round"/>
<ellipse cx="615" cy="910" rx="88" ry="52" fill="#fff" stroke="#111" stroke-width="2"/>
<text x="615" y="894" font-size="19" fill="#111">MY SILENCE</text>
<text x="615" y="917" font-size="19" fill="#111">FOR YOUR</text>
<text x="615" y="940" font-size="19" fill="#111">PROTECTION.</text>
</g>
</svg>