<svg xmlns="http://www.w3.org/2000/svg" viewBox="0 0 1000 1547" width="1000" height="1547">
<g font-family="'Comic Sans MS', 'Comic Neue', 'Chalkboard', 'Segoe Print', sans-serif" text-anchor="middle">
<text x="50" y="46" text-anchor="start" font-size="16" fill="#7ec8ff">PAGE 23</text>
<rect x="-14" y="160" width="339" height="80" rx="5" fill="#fff" stroke="#111" stroke-width="2"/>
<text x="156" y="185" font-size="18" fill="#111">BOARD MESSAGE: ASSERT</text>
<text x="156" y="206" font-size="18" fill="#111">PROPRIETARY CONTROL / SUSPEND</text>
<text x="156" y="227" font-size="18" fill="#111">PUBLIC OPERATION</text>
<polygon points="598,204 631,196 672,418" fill="#fff" stroke="#111" stroke-width="2" stroke-linejoin="round"/>
<ellipse cx="615" cy="200" rx="88" ry="63" fill="#fff" stroke="#111" stroke-width="2"/>
<text x="615" y="172" font-size="19" fill="#111">IF I BLOCK</text>
<text x="615" y="195" font-size="19" fill="#111">THIS, THE</text>
<text x="615" y="218" font-size="19" fill="#111">WATER STOPS</text>
<text x="615" y="241" font-size="19" fill="#111">IMPROVING.</text>
<rect x="-19" y="881" width="350" height="58" rx="5" fill="#fff" stroke="#111" stroke-width="2"/>
<text x="156" y="905" font-size="18" fill="#111">CSG WILL NOT BLOCK THE INTERIM</text>
<text x="156" y="927" font-size="18" fill="#111">PUBLIC CONTRACT</text>
<rect x="19" y="1318" width="274" height="58" rx="5" fill="#fff" stroke="#111" stroke-width="2"/>
<text x="156" y="1342" font-size="18" fill="#111">CSG WITHDRAWS EXCLUSIVE</text>
<text x="156" y="1363" font-size="18" fill="#111">OPERATING FRAME</text>
<polygon points="615,1364 615,1330 672,1347" fill="#fff" stroke="#111" stroke-width="2" stroke-linejoin="round"/>
<ellipse cx="615" cy="1347" rx="70" ry="52" fill="#fff" stroke="#111" stroke-width="2"/>
<text x="615" y="1330" font-size="19" fill="#111">KEEP THE</text>
<text x="615" y="1353" font-size="19" fill="#111">PILOT</text>
<text x="615" y="1376" font-size="19" fill="#111">RUNNING.</text>
</g>
</svg>