<svg xmlns="http://www.w3.org/2000/svg" viewBox="0 0 1000 1547" width="1000" height="1547">
<g font-family="'Comic Sans MS', 'Comic Neue', 'Chalkboard', 'Segoe Print', sans-serif" text-anchor="middle">
<text x="50" y="46" text-anchor="start" font-size="16" fill="#7ec8ff">PAGE 15</text>
<rect x="-3" y="182" width="317" height="37" rx="5" fill="#fff" stroke="#111" stroke-width="2"/>
<text x="156" y="206" font-size="18" fill="#111">COLORADO DOWNSTREAM STATION</text>
<rect x="24" y="618" width="263" height="37" rx="5" fill="#fff" stroke="#111" stroke-width="2"/>
<text x="156" y="643" font-size="18" fill="#111">CLARITY INDEX: 41 → 68</text>
<rect x="707" y="182" width="274" height="37" rx="5" fill="#fff" stroke="#111" stroke-width="2"/>
<text x="844" y="206" font-size="18" fill="#111">DOWNSTREAM TAXA: 3 → 11</text>
<rect x="675" y="618" width="339" height="37" rx="5" fill="#fff" stroke="#111" stroke-width="2"/>
<text x="844" y="643" font-size="18" fill="#111">WETLAND FLOW CAPACITY: FINITE</text>
<polygon points="139,915 172,906 213,1129" fill="#fff" stroke="#111" stroke-width="2" stroke-linejoin="round"/>
<ellipse cx="156" cy="910" rx="88" ry="75" fill="#fff" stroke="#111" stroke-width="2"/>
<text x="156" y="870" font-size="19" fill="#111">YOU WANT TO</text>
<text x="156" y="894" font-size="19" fill="#111">STOP THE</text>
<text x="156" y="917" font-size="19" fill="#111">WORK THAT</text>
<text x="156" y="940" font-size="19" fill="#111">MADE THIS</text>
<text x="156" y="963" font-size="19" fill="#111">POSSIBLE.</text>
<polygon points="598,915 631,906 672,1129" fill="#fff" stroke="#111" stroke-width="2" stroke-linejoin="round"/>
<ellipse cx="615" cy="910" rx="88" ry="110" fill="#fff" stroke="#111" stroke-width="2"/>
<text x="615" y="836" font-size="19" fill="#111">YOU KNEW IT</text>
<text x="615" y="859" font-size="19" fill="#111">WAS USEFUL.</text>
<text x="615" y="882" font-size="19" fill="#111">YOU KNEW IT</text>
<text x="615" y="905" font-size="19" fill="#111">WAS</text>
<text x="615" y="928" font-size="19" fill="#111">CONTROLLED.</text>
<text x="615" y="951" font-size="19" fill="#111">WHY IS IT</text>
<text x="615" y="975" font-size="19" fill="#111">WRONG ONLY</text>
<text x="615" y="998" font-size="19" fill="#111">NOW?</text>
</g>
</svg>